<?xml version="1.0" ?><!DOCTYPE svg  PUBLIC '-//W3C//DTD SVG 1.1//EN'  'http://www.w3.org/Graphics/SVG/1.1/DTD/svg11.dtd'><svg width="24px" height="24px" viewBox="0 0 24 24" enable-background="new 0 0 24 24" version="1.1" xml:space="preserve" xmlns="http://www.w3.org/2000/svg" xmlns:xlink="http://www.w3.org/1999/xlink"><g id="Layer_27"/><g id="Layer_2"/><g id="Layer_3"/><g id="Layer_4"/><g id="Layer_5"/><g id="Layer_6"/><g id="Layer_7"/><g id="Layer_8"/><g id="Layer_9"/><g id="Layer_10"/><g id="Layer_11"/><g id="Layer_12"/><g id="Layer_13"/><g id="Layer_14"/><g id="Layer_15"/><g id="Layer_16"><g id="Layer_17"/></g><g id="Layer_18"/><g id="Layer_19"/><g id="Layer_20"/><g id="Layer_21"/><g id="Layer_22"/><g id="Layer_23"/><g id="Layer_24"><path d="M22,6v12c0,0.55-0.45,1-1,1H3c-0.55,0-1-0.45-1-1V6c0-0.55,0.45-1,1-1h18C21.55,5,22,5.45,22,6z" fill="#95CF4E"/><g><path d="M3,8C2.65,8,2.32,8.04,2,8.13v2.14C2.29,10.1,2.64,10,3,10c1.1,0,2,0.9,2,2c0,1.1-0.9,2-2,2    c-0.36,0-0.71-0.1-1-0.27v2.14C2.32,15.96,2.65,16,3,16c2.21,0,4-1.79,4-4C7,9.79,5.21,8,3,8z" fill="#63A452"/><path d="M21,10c0.36,0,0.71,0.1,1,0.27V8.13C21.68,8.04,21.35,8,21,8c-2.21,0-4,1.79-4,4c0,2.21,1.79,4,4,4    c0.35,0,0.68-0.04,1-0.13v-2.14C21.71,13.9,21.36,14,21,14c-1.1,0-2-0.9-2-2C19,10.9,19.9,10,21,10z" fill="#63A452"/><path d="M13,8.13V5h-2v3.13C9.27,8.57,8,10.14,8,12s1.27,3.43,3,3.87V19h2v-3.13c1.73-0.44,3-2.01,3-3.87    S14.73,8.57,13,8.13z M10,12c0-0.74,0.4-1.38,1-1.73v3.46C10.4,13.38,10,12.74,10,12z M13,13.73v-3.46c0.6,0.35,1,0.9901,1,1.73    S13.6,13.38,13,13.73z" fill="#63A452"/></g></g><g id="Layer_25"/><g id="Layer_26"/></svg>